<svg width="128" height="128" viewBox="0 0 128 128" fill="none" xmlns="http://www.w3.org/2000/svg">
  <rect width="128" height="128" rx="28" fill="#111827"/>
  <rect x="24" y="24" width="80" height="80" rx="16" fill="#F8FAFC"/>
  <rect x="36" y="36" width="34" height="34" rx="8" fill="#2563EB"/>
  <path d="M49 56L53 44L57 56H49Z" fill="#F8FAFC"/>
  <path d="M44 61H62" stroke="#F8FAFC" stroke-width="5" stroke-linecap="round"/>
  <path d="M78 40H89C96.18 40 102 45.82 102 53C102 60.18 96.18 66 89 66H84V84H78V40Z" fill="#111827"/>
  <path d="M84 47V59H89C92.314 59 95 56.314 95 53C95 49.686 92.314 47 89 47H84Z" fill="#F8FAFC"/>
  <rect x="36" y="80" width="34" height="8" rx="4" fill="#10B981"/>
  <rect x="36" y="94" width="56" height="8" rx="4" fill="#F59E0B"/>
</svg>
