<svg width="1600" height="760" viewBox="0 0 1600 760" fill="none" xmlns="http://www.w3.org/2000/svg" role="img" aria-labelledby="title desc">
  <title id="title">AI Product PM Style Skill</title>
  <desc id="desc">A README hero banner for the AI Product PM Style Codex skill, with product strategy, prompt discipline, harness constraints, and GitHub prototype research labels.</desc>
  <rect width="1600" height="760" fill="#080D14"/>
  <path d="M0 1H1600" stroke="#1F2937" stroke-width="2"/>

  <text x="800" y="72" text-anchor="middle" fill="#F8FAFC" font-family="Inter, ui-sans-serif, system-ui, -apple-system, BlinkMacSystemFont, 'Segoe UI', sans-serif" font-size="32" font-style="italic" font-weight="650" letter-spacing=".5">
    AI Product PM Style for Codex Agents
  </text>

  <g transform="translate(700 116)">
    <rect width="200" height="200" rx="28" fill="#0B1118"/>
    <rect x="34" y="34" width="132" height="132" rx="28" fill="#F8FAFC"/>
    <rect x="54" y="54" width="55" height="55" rx="13" fill="#2563EB"/>
    <path d="M75 89L82 66L90 89H75Z" fill="#F8FAFC"/>
    <path d="M67 99H100" stroke="#F8FAFC" stroke-width="9" stroke-linecap="round"/>
    <path d="M122 60H141C153.703 60 164 70.2975 164 83C164 95.7025 153.703 106 141 106H132V138H122V60Z" fill="#111827"/>
    <path d="M132 72V94H141C147.075 94 152 89.0751 152 83C152 76.9249 147.075 72 141 72H132Z" fill="#F8FAFC"/>
    <rect x="54" y="132" width="55" height="13" rx="6.5" fill="#10B981"/>
    <rect x="54" y="153" width="88" height="13" rx="6.5" fill="#F59E0B"/>
  </g>

  <g transform="translate(557 355)" font-family="Inter, ui-sans-serif, system-ui, -apple-system, BlinkMacSystemFont, 'Segoe UI', sans-serif" font-size="22" font-weight="800" letter-spacing="4">
    <rect x="0" y="0" width="122" height="56" fill="#111B2B"/>
    <text x="61" y="36" text-anchor="middle" fill="#F8FAFC">SKILL</text>
    <rect x="122" y="0" width="365" height="56" fill="#A855F7"/>
    <text x="304.5" y="36" text-anchor="middle" fill="#FFFFFF">AI-PRODUCT-PM</text>
  </g>

  <text x="800" y="495" text-anchor="middle" fill="#E5E7EB" font-family="Inter, ui-sans-serif, system-ui, -apple-system, BlinkMacSystemFont, 'Segoe UI', sans-serif" font-size="35" font-weight="700">
    Product-led AI SaaS planning, prompt discipline, harness constraints,
  </text>
  <text x="800" y="545" text-anchor="middle" fill="#E5E7EB" font-family="Inter, ui-sans-serif, system-ui, -apple-system, BlinkMacSystemFont, 'Segoe UI', sans-serif" font-size="35" font-weight="700">
    modular builds, clean UI copy, and GitHub prototype research.
  </text>

  <g transform="translate(247 620)" font-family="Inter, ui-sans-serif, system-ui, -apple-system, BlinkMacSystemFont, 'Segoe UI', sans-serif" font-size="19" font-weight="800" letter-spacing="4">
    <rect x="0" y="0" width="142" height="54" fill="#374151"/>
    <text x="71" y="34" text-anchor="middle" fill="#F8FAFC">TOOLS</text>
    <rect x="142" y="0" width="340" height="54" fill="#101827"/>
    <text x="312" y="34" text-anchor="middle" fill="#F8FAFC">CODEX · GITHUB</text>

    <rect x="500" y="0" width="165" height="54" fill="#1F2937"/>
    <text x="582.5" y="34" text-anchor="middle" fill="#F8FAFC">FOCUS</text>
    <rect x="665" y="0" width="330" height="54" fill="#0F766E"/>
    <text x="830" y="34" text-anchor="middle" fill="#ECFDF5">AGENT · PROMPT</text>

    <rect x="1015" y="0" width="160" height="54" fill="#1F2937"/>
    <text x="1095" y="34" text-anchor="middle" fill="#F8FAFC">STYLE</text>
    <rect x="1175" y="0" width="178" height="54" fill="#F59E0B"/>
    <text x="1264" y="34" text-anchor="middle" fill="#111827">PM-FIRST</text>
  </g>
</svg>
