<svg width="512" height="512" viewBox="0 0 512 512" fill="none" xmlns="http://www.w3.org/2000/svg">
  <rect width="512" height="512" rx="104" fill="#111827"/>
  <path d="M96 132C96 112.118 112.118 96 132 96H380C399.882 96 416 112.118 416 132V380C416 399.882 399.882 416 380 416H132C112.118 416 96 399.882 96 380V132Z" fill="#F8FAFC"/>
  <path d="M149 173C149 159.745 159.745 149 173 149H263C276.255 149 287 159.745 287 173V263C287 276.255 276.255 287 263 287H173C159.745 287 149 276.255 149 263V173Z" fill="#2563EB"/>
  <path d="M225 188L257 256H236L231 244H205L200 256H180L212 188H225ZM218 209L211 227H225L218 209Z" fill="#F8FAFC"/>
  <path d="M322 185H358C380.091 185 398 202.909 398 225C398 247.091 380.091 265 358 265H342V329H322V185ZM342 205V245H358C369.046 245 378 236.046 378 225C378 213.954 369.046 205 358 205H342Z" fill="#111827"/>
  <path d="M149 337C149 327.059 157.059 319 167 319H257C266.941 319 275 327.059 275 337C275 346.941 266.941 355 257 355H167C157.059 355 149 346.941 149 337Z" fill="#10B981"/>
  <path d="M149 383C149 373.059 157.059 365 167 365H344C353.941 365 362 373.059 362 383C362 392.941 353.941 401 344 401H167C157.059 401 149 392.941 149 383Z" fill="#F59E0B"/>
  <circle cx="369" cy="316" r="18" fill="#2563EB"/>
  <circle cx="414" cy="316" r="10" fill="#10B981"/>
  <path d="M287 218H322" stroke="#111827" stroke-width="14" stroke-linecap="round"/>
  <path d="M275 337H369" stroke="#111827" stroke-width="12" stroke-linecap="round" stroke-dasharray="1 24"/>
</svg>
